<?xml version="1.0" standalone="no"?><!DOCTYPE svg PUBLIC "-//W3C//DTD SVG 1.1//EN" "http://www.w3.org/Graphics/SVG/1.1/DTD/svg11.dtd"><svg t="1756048631610" class="icon" viewBox="0 0 1026 1024" version="1.1" xmlns="http://www.w3.org/2000/svg" p-id="1496" xmlns:xlink="http://www.w3.org/1999/xlink" width="200.390625" height="200"><path d="M330.582677 481.091864l88.692914 88.692913 32.251968-32.251969-32.251968-32.251968-16.125985-13.43832 77.942258-77.942258h18.813648c5.375328 0 10.750656 0 16.125984-2.687664L456.902887 354.771654l-2.687664-2.687664c18.813648-64.503937 2.687664-134.383202-48.377953-185.448819-48.377953-48.377953-120.944882-64.503937-182.761155-48.377953l107.506562 107.506562-26.87664 104.818897-104.818898 26.876641-107.506562-107.506562c-16.125984 61.816273 0 134.383202 48.377953 182.761155 51.065617 53.753281 126.32021 69.879265 190.824147 48.377953zM645.03937 545.595801c-2.687664 8.062992-2.687664 16.125984 0 24.188976v10.750656l-8.062992 8.062992-56.440945 56.440945-16.125984 16.125984-48.377953-48.377952L483.779528 645.03937l282.204724 282.204724c16.125984 16.125984 40.314961 26.87664 61.816273 26.876641 21.501312 0 45.690289-8.062992 61.816273-26.876641 34.939633-34.939633 34.939633-91.380577 0-126.320209L645.03937 545.595801z m220.388452 346.708661l-45.690289 10.750656-37.627297-37.627296 10.750656-45.690289 45.690289-10.750656 37.627297 37.627296-10.750656 45.690289zM518.71916 577.847769l48.377953 48.377953 56.440945-56.440945c-2.687664-26.87664 5.375328-53.753281 26.87664-75.254593 21.501312-21.501312 48.377953-29.564304 75.254593-26.876641l241.889764-241.889763-134.383202-134.383203-241.889764 241.889764c2.687664 26.87664-5.375328 53.753281-26.87664 75.254593-21.501312 21.501312-48.377953 29.564304-75.254593 26.876641l-56.440945 56.440945 48.377953 48.377952L241.889764 779.422572l-8.062992-8.062992L188.136483 806.299213l-77.942257 120.944881 18.813648 18.813649 120.944882-77.942257 37.627296-45.690289-8.062992-8.062992 239.2021-236.514436z" fill="#030000" p-id="1497"></path></svg>